<svg xmlns="http://www.w3.org/2000/svg" width="24" height="24" style=""><rect id="backgroundrect" width="100%" height="100%" x="0" y="0" fill="none" stroke="none"/><g class="currentLayer" style=""><title>Layer 1</title><circle cx="12" cy="12" r="3.200000047683716" id="svg_1" class="selected" fill="#919191" fill-opacity="1"/><path d="M30.122448921203613,9.714285850524902 h24 v24 H30.122448921203613 z" fill="none" id="svg_3" class="" stroke="none" transform="rotate(7.319011211395264 42.122451782226584,21.71428680419918) "/><path d="M9 2L7.17 4H4c-1.1 0-2 .9-2 2v12c0 1.1.9 2 2 2h16c1.1 0 2-.9 2-2V6c0-1.1-.9-2-2-2h-3.17L15 2H9zm3 15c-2.76 0-5-2.24-5-5s2.24-5 5-5 5 2.24 5 5-2.24 5-5 5z" id="svg_2" class="" fill="#919191" fill-opacity="1"/></g></svg>